

<svg id="Layer_1" data-name="Layer 1" xmlns="http://www.w3.org/2000/svg" viewBox="0 0 648.65 797.03">
<defs>
<style>.cls-1{fill:#52c8e8;}.cls-1,.cls-10,.cls-9{stroke:#c5c9dd;}.cls-1,.cls-10,.cls-8,.cls-9{stroke-miterlimit:10;}.cls-2{fill:#a4ce3c;}.cls-3{fill:#6abd45;}.cls-4{fill:#8dc63f;}.cls-5{fill:#cd6028;}.cls-6{fill:#a04b23;}.cls-7{fill:#fdf164;}.cls-10,.cls-8{fill:#fff;}.cls-8{stroke:#e3dac5;}.cls-9{fill:#e2e2e2;}.cls-11{fill:#176131;}.cls-12{fill:#ec8025;}.cls-13{fill:#cc3e5c;}.cls-14{fill:#f1eb58;}.cls-15{fill:#993467;}.cls-16{fill:#e89eb0;}.cls-17{fill:#231f20;}</style>
</defs>
<title>lastRight</title>
<rect class="cls-1" x="3.84" y="0.5" width="612" height="792"/>
<rect class="cls-2" x="3.84" y="763.8" width="612" height="33.23"/>
<ellipse class="cls-3" cx="510.64" cy="430.15" rx="67.63" ry="80.86"/>
<path class="cls-3" d="M507.94,506c-1.18.22-2.38.41-3.57.57Q506.17,506.3,507.94,506Z" transform="translate(2.7 5.03)"/>
<path class="cls-3" d="M500.65,343.26q1.75.17,3.48.39Q502.41,343.43,500.65,343.26Z" transform="translate(2.7 5.03)"/>
<path class="cls-3" d="M504.37,343.69c1.19.16,2.39.35,3.57.57Q506.17,343.93,504.37,343.69Z" 
transform="translate(2.7 5.03)"/>
<path class="cls-3" d="M492.85,342.89c1.21,0,2.41,0,3.61.08C495.26,342.92,494.06,342.89,492.85,342.89Z" 
transform="translate(2.7 5.03)"/>
<path class="cls-3" d="M496.81,343c1.16.05,2.32.13,3.47.23C499.13,343.12,498,343,496.81,343Z" transform="translate(2.7 5.03)"/>
<path class="cls-3" d="M500.28,507c-1.15.1-2.31.18-3.47.23C498,507.19,499.13,507.11,500.28,507Z" transform="translate(2.7 5.03)"/>
<path class="cls-3" d="M504.13,506.58q-1.72.23-3.48.39Q502.41,506.81,504.13,506.58Z" transform="translate(2.7 5.03)"/>
<path class="cls-3" d="M496.46,507.26c-1.2.05-2.4.08-3.61.08C494.06,507.34,495.26,507.31,496.46,507.26Z" transform="translate(2.7 5.03)"/>
<path class="cls-4" d="M440.31,425.12c0-40.29,29.15-73.81,67.63-80.86h0c-1.18-.22-2.38-.41-3.57-.57l-.24,0q-1.72-.22-3.48-.39l-.37,0c-1.15-.1-2.31-.18-3.47-.23l-.35,0c-1.2-.05-2.4-.08-3.61-.08-45.68,0-82.72,36.81-82.72,82.23s37,82.22,82.72,82.22c1.21,0,2.41,0,3.61-.08l.35,0c1.16-.05,2.32-.13,3.47-.23l.37,0q1.75-.17,3.48-.39l.24,0c1.19-.16,2.39-.35,3.57-.57h0C469.46,498.92,440.31,465.4,440.31,425.12Z" transform="translate(2.7 5.03)"/>
<ellipse class="cls-3" cx="458.59" cy="527.59" rx="44.08" ry="44.1"/>
<path class="cls-4" d="M427.91,522.56a43.75,43.75,0,0,1,35.71-43,43.77,43.77,0,1,0,0,86.08A43.75,43.75,0,0,1,427.91,522.56Z" transform="translate(2.7 5.03)"/>
<circle class="cls-3" cx="553.21" cy="522.49" r="61.5"/>
<path class="cls-4" d="M511.46,517.46a61,61,0,0,1,49.83-60,61,61,0,1,0-11.11,121.05,61.54,61.54,0,0,0,11.11-1A61,61,0,0,1,511.46,517.46Z" transform="translate(2.7 5.03)"/>
<rect class="cls-5" x="511.69" y="467.79" width="6.28" height="292.78"/><rect class="cls-6" x="500.5" y="467.79" width="11.2" height="292.78"/>
<rect class="cls-5" x="490.59" y="514.35" width="3.84" height="86.85" transform="translate(-184.13 259.2) rotate(-24.48)"/>
<rect class="cls-6" x="484.22" y="516.56" width="6.85" height="86.85" transform="translate(-185.48 257.38) rotate(-24.48)"/>
<rect class="cls-5" x="499.04" y="551.2" width="67.99" height="5.52" transform="translate(-224.71 671.82) rotate(-54.54)"/>
<rect class="cls-6" x="492.78" y="544.59" width="67.99" height="9.84" transform="translate(-223.71 664.85) rotate(-54.54)"/>
<circle class="cls-7" cx="99.59" cy="106.08" r="84.57"/><path class="cls-8" d="M527.69,236.56h2.7c-.3.49-.61,1-.94,1.44C528.85,237.54,528.26,237.05,527.69,236.56Z" transform="translate(2.7 5.03)"/>
<path class="cls-8" d="M644.36,236.69a.8.8,0,0,1-.13-.13h.29Z" transform="translate(2.7 5.03)"/>
<path class="cls-8" d="M527.69,236.56h2.7c-.3.49-.61,1-.94,1.44C528.85,237.54,528.26,237.05,527.69,236.56Z" transform="translate(2.7 5.03)"/>
<path class="cls-8" d="M644.52,236.56l-.16.13a.8.8,0,0,1-.13-.13Z" transform="translate(2.7 5.03)"/><path class="cls-9" d="M566.59,200.73A37.4,37.4,0,0,0,557,202a52.88,52.88,0,0,0-95.73-12.52,51.5,51.5,0,0,0-6.13-.36c-20.83,0-38.44,12.08-44.19,28.68a21.25,21.25,0,0,0-5.37-.68c-13.16,0-23.83,11.83-23.83,26.43,0,13.5,9.12,24.62,20.89,26.22a20.35,20.35,0,0,0,2.94.21H562.7a38.37,38.37,0,0,0,3.89.2c20.06,0,36.33-15.53,36.33-34.7S586.65,200.73,566.59,200.73Zm-30.88,38.05-.16.13-.13-.13Z" transform="translate(2.7 5.03)"/><path class="cls-8" d="M407.42,217.18v.21h2.94A20.35,20.35,0,0,1,407.42,217.18Z" transform="translate(2.7 5.03)"/><path class="cls-10" d="M564.81,198.51a37.4,37.4,0,0,0-9.59,1.23,52.88,52.88,0,0,0-95.73-12.52,51.5,51.5,0,0,0-6.13-.36c-20.83,0-38.44,12.08-44.19,28.68a21.25,21.25,0,0,0-5.37-.68c-13.16,0-23.83,11.83-23.83,26.43,0,13.5,9.12,24.62,20.89,26.22a20.35,20.35,0,0,0,2.94.21H560.92a38.37,38.37,0,0,0,3.89.2c20.06,0,36.33-15.53,36.33-34.7S584.87,198.51,564.81,198.51Z" transform="translate(2.7 5.03)"/><path class="cls-8" d="M411.09,220.06v.21H414A20.35,20.35,0,0,1,411.09,220.06Z" transform="translate(2.7 5.03)"/><path class="cls-8" d="M644.52,236.56l-.16.13a.8.8,0,0,1-.13-.13Z" transform="translate(2.7 5.03)"/><path class="cls-8" d="M316.94,142.43h1.91q-.32.47-.66.9C317.76,143,317.34,142.74,316.94,142.43Z" transform="translate(2.7 5.03)"/><path class="cls-8" d="M399.58,142.51l-.1-.08h.21Z" transform="translate(2.7 5.03)"/><path class="cls-8" d="M316.94,142.43h1.91q-.32.47-.66.9C317.76,143,317.34,142.74,316.94,142.43Z" transform="translate(2.7 5.03)"/><path class="cls-8" d="M399.69,142.43l-.11.08-.1-.08Z" transform="translate(2.7 5.03)"/><path class="cls-9" d="M344.49,119.85a29.63,29.63,0,0,0-6.79.78c-4.62-13.75-18.93-23.78-35.88-23.78-13.51,0-25.34,6.35-31.92,15.89a41.38,41.38,0,0,0-4.35-.23c-14.75,0-27.22,7.61-31.29,18.07a17.11,17.11,0,0,0-3.81-.43,16.64,16.64,0,0,0-2.08,33.18,15.8,15.8,0,0,0,2.08.13H341.74c.9.09,1.82.13,2.75.13,14.21,0,25.73-9.79,25.73-21.87S358.7,119.85,344.49,119.85Zm-21.87,24-.11.08a.24.24,0,0,1-.09-.08Z" transform="translate(2.7 5.03)"/><path class="cls-8" d="M231.76,130.22v.13h2.08A15.8,15.8,0,0,1,231.76,130.22Z" transform="translate(2.7 5.03)"/><path class="cls-10" d="M343.23,118.45a29.08,29.08,0,0,0-6.79.78c-4.62-13.75-18.93-23.79-35.88-23.79-13.51,0-25.34,6.36-31.93,15.9a38.54,38.54,0,0,0-4.34-.23c-14.75,0-27.22,7.61-31.3,18.07a17,17,0,0,0-3.8-.43,16.64,16.64,0,0,0-2.08,33.18,15.8,15.8,0,0,0,2.08.13H340.48c.9.08,1.82.13,2.75.13,14.21,0,25.73-9.79,25.73-21.87S357.44,118.45,343.23,118.45Z" transform="translate(2.7 5.03)"/><path class="cls-8" d="M234.35,132v.13h2.08A15.8,15.8,0,0,1,234.35,132Z" transform="translate(2.7 5.03)"/><path class="cls-8" d="M399.69,142.43l-.11.08-.1-.08Z" transform="translate(2.7 5.03)"/><rect class="cls-11" x="51.44" y="682.92" width="3.64" height="80.88"/><path class="cls-12" d="M40.8,653.9c4.77-.6,7.92.38,10.89.67,2.83.47,5.47.26,6.14,1.57.23,1.46-2,2.85-4,4.9-2.22,2-4.18,4.63-8.38,7a15.17,15.17,0,0,1-9.7,1.82c-2.78-.46-6.17-1.21-7.33-4.07-.75-3,1.54-5.59,3.52-7.61A15.08,15.08,0,0,1,40.8,653.9Z" transform="translate(2.7 5.03)"/><path class="cls-12" d="M50.66,671.88c.86-4.81,2.71-7.54,3.87-10.31,1.28-2.58,1.87-5.2,3.3-5.43,1.43.24,2.06,2.87,3.39,5.46,1.19,2.78,3.09,5.53,4,10.34a15.89,15.89,0,0,1-1.19,9.95c-1.26,2.54-3,5.57-6,5.78-3-.23-4.78-3.28-6.07-5.83A16,16,0,0,1,50.66,671.88Z" transform="translate(2.7 5.03)"/><path class="cls-12" d="M70.43,668.11c-4.24-2.37-6.25-5-8.5-7-2-2.08-4.31-3.48-4.1-4.94.65-1.31,3.3-1.07,6.12-1.52,3-.27,6.09-1.22,10.88-.58a15.55,15.55,0,0,1,9,4.33c2,2,4.34,4.65,3.63,7.64-1.12,2.85-4.49,3.57-7.27,4A15.27,15.27,0,0,1,70.43,668.11Z" transform="translate(2.7 5.03)"/><path class="cls-12" d="M72.79,647.81c-3.49,3.33-6.58,4.42-9.12,6-2.54,1.3-4.54,3-5.84,2.38-1-1,0-3.53.39-6.4.64-2.94.68-6.28,2.7-10.69a15.26,15.26,0,0,1,6.72-7.28c2.5-1.29,5.65-2.7,8.24-1.06,2.33,2,2,5.49,1.58,8.31A15.56,15.56,0,0,1,72.79,647.81Z" transform="translate(2.7 5.03)"/><path class="cls-12" d="M54.48,639c2.08,4.43,2.18,7.77,2.86,10.72.46,2.87,1.5,5.36.49,6.4-1.29.66-3.31-1.11-5.88-2.43-2.56-1.55-5.67-2.67-9.21-6a15.93,15.93,0,0,1-4.8-8.83c-.47-2.82-.85-6.32,1.45-8.29,2.56-1.62,5.73-.18,8.25,1.13A15.9,15.9,0,0,1,54.48,639Z" transform="translate(2.7 5.03)"/><path class="cls-13" d="M43.82,644.68c4.2,2.37,6.18,5,8.4,7,2,2.07,4.27,3.47,4.05,4.93-.66,1.32-3.29,1.1-6.11,1.56-2.95.28-6.07,1.24-10.83.63a15.26,15.26,0,0,1-8.89-4.32c-2-2-4.28-4.65-3.56-7.65,1.14-2.87,4.5-3.61,7.27-4A15,15,0,0,1,43.82,644.68Z" transform="translate(2.7 5.03)"/><path class="cls-13" d="M41.31,665.09c3.49-3.37,6.58-4.47,9.12-6C53,657.75,55,656,56.27,656.65c1,1.05,0,3.55-.44,6.43-.66,3-.73,6.31-2.77,10.76a15.54,15.54,0,0,1-6.75,7.33c-2.5,1.31-5.64,2.74-8.21,1.1-2.3-2-2-5.5-1.51-8.34A15.88,15.88,0,0,1,41.31,665.09Z" transform="translate(2.7 5.03)"/><path class="cls-13" d="M59.47,673.84c-2-4.45-2.11-7.8-2.76-10.76-.44-2.88-1.46-5.38-.44-6.43,1.28-.66,3.29,1.1,5.83,2.42,2.54,1.55,5.63,2.65,9.12,6a15.88,15.88,0,0,1,4.72,8.84c.44,2.84.8,6.35-1.51,8.34-2.56,1.64-5.71.21-8.21-1.1A15.54,15.54,0,0,1,59.47,673.84Z" transform="translate(2.7 5.03)"/><path class="cls-13" d="M73.2,658.84c-4.75.61-7.88-.35-10.83-.63-2.81-.46-5.44-.24-6.1-1.56-.23-1.46,2-2.86,4-4.93,2.23-2,4.2-4.67,8.41-7a15,15,0,0,1,9.66-1.86c2.77.44,6.14,1.18,7.27,4,.73,3-1.57,5.62-3.56,7.65A15.23,15.23,0,0,1,73.2,658.84Z" transform="translate(2.7 5.03)"/><path class="cls-13" d="M63.53,640.82c-.9,4.83-2.76,7.58-3.93,10.36-1.3,2.6-1.91,5.24-3.33,5.47-1.43-.23-2-2.87-3.34-5.47-1.16-2.78-3-5.53-3.92-10.36a16.06,16.06,0,0,1,1.25-10c1.27-2.56,3-5.61,6-5.84,3,.23,4.73,3.28,6,5.84A16.05,16.05,0,0,1,63.53,640.82Z" transform="translate(2.7 5.03)"/><ellipse class="cls-14" cx="58.95" cy="662.44" rx="3.87" ry="4.11"/><rect class="cls-11" x="120.17" y="682.92" width="3.64" height="80.88"/><path class="cls-15" d="M98.77,685.4c4.41-.56,7.32.36,10.06.63,2.61.44,5,.24,5.67,1.47.22,1.36-1.87,2.66-3.72,4.58-2,1.85-3.86,4.32-7.74,6.5a13.8,13.8,0,0,1-9,1.7c-2.58-.43-5.7-1.13-6.78-3.8-.69-2.79,1.42-5.22,3.25-7.1A13.9,13.9,0,0,1,98.77,685.4Z" transform="translate(2.7 5.03)"/><path class="cls-15" d="M107.88,702.2c.8-4.49,2.5-7,3.57-9.63,1.19-2.41,1.73-4.86,3-5.07,1.32.22,1.9,2.68,3.13,5.1,1.1,2.6,2.85,5.16,3.72,9.65a15,15,0,0,1-1.09,9.3c-1.17,2.38-2.75,5.21-5.53,5.4-2.8-.22-4.42-3.06-5.62-5.45A15,15,0,0,1,107.88,702.2Z" transform="translate(2.7 5.03)"/><path class="cls-15" d="M126.13,698.68c-3.91-2.22-5.76-4.7-7.84-6.57-1.88-1.94-4-3.25-3.79-4.61.6-1.22,3-1,5.65-1.43,2.73-.24,5.63-1.13,10-.54a14.3,14.3,0,0,1,8.27,4.05c1.86,1.9,4,4.35,3.36,7.14-1,2.66-4.15,3.33-6.72,3.74A14,14,0,0,1,126.13,698.68Z" transform="translate(2.7 5.03)"/><path class="cls-15" d="M128.31,679.71c-3.21,3.12-6.07,4.13-8.42,5.56-2.35,1.22-4.19,2.85-5.39,2.23-1-1,0-3.3.36-6,.59-2.75.63-5.86,2.49-10a14.2,14.2,0,0,1,6.21-6.79c2.31-1.21,5.22-2.53,7.6-1,2.16,1.86,1.85,5.13,1.47,7.77A14.59,14.59,0,0,1,128.31,679.71Z" transform="translate(2.7 5.03)"/><path class="cls-15" d="M111.4,671.5c1.93,4.15,2,7.26,2.65,10,.42,2.68,1.39,5,.45,6-1.19.61-3.06-1-5.43-2.27-2.37-1.45-5.24-2.49-8.5-5.64a14.91,14.91,0,0,1-4.44-8.24c-.43-2.64-.78-5.91,1.34-7.75,2.37-1.51,5.29-.17,7.62,1.06A14.71,14.71,0,0,1,111.4,671.5Z" transform="translate(2.7 5.03)"/><path class="cls-16" d="M101.56,676.79c3.88,2.21,5.71,4.7,7.76,6.57,1.86,1.94,3.94,3.25,3.74,4.62-.61,1.22-3,1-5.64,1.45-2.72.26-5.61,1.16-10,.59a14,14,0,0,1-8.21-4c-1.83-1.9-4-4.35-3.28-7.16,1-2.67,4.15-3.36,6.71-3.78A13.81,13.81,0,0,1,101.56,676.79Z" transform="translate(2.7 5.03)"/><path class="cls-16" d="M99.24,695.86c3.23-3.15,6.08-4.18,8.43-5.63,2.35-1.23,4.2-2.88,5.39-2.25.94,1,0,3.31-.41,6-.6,2.77-.67,5.9-2.55,10a14.51,14.51,0,0,1-6.24,6.85c-2.31,1.22-5.21,2.55-7.58,1-2.13-1.86-1.8-5.14-1.39-7.79A14.89,14.89,0,0,1,99.24,695.86Z" transform="translate(2.7 5.03)"/><path class="cls-16" d="M116,704c-1.89-4.15-2-7.28-2.56-10-.4-2.69-1.34-5-.4-6,1.19-.63,3,1,5.38,2.25,2.35,1.45,5.2,2.48,8.43,5.63a15,15,0,0,1,4.36,8.26c.4,2.65.73,5.93-1.4,7.79-2.37,1.52-5.27.19-7.58-1A14.5,14.5,0,0,1,116,704Z" transform="translate(2.7 5.03)"/><path class="cls-16" d="M128.7,690c-4.39.57-7.28-.33-10-.59-2.59-.43-5-.23-5.63-1.45-.21-1.37,1.88-2.68,3.73-4.62,2.06-1.87,3.88-4.36,7.76-6.57a13.82,13.82,0,0,1,8.93-1.74c2.56.42,5.67,1.11,6.72,3.78.66,2.81-1.46,5.26-3.29,7.16A14,14,0,0,1,128.7,690Z" transform="translate(2.7 5.03)"/><path class="cls-16" d="M119.76,673.18c-.83,4.51-2.55,7.08-3.63,9.69-1.2,2.42-1.76,4.89-3.07,5.11-1.32-.22-1.88-2.69-3.08-5.11-1.08-2.61-2.8-5.18-3.63-9.69a15.15,15.15,0,0,1,1.16-9.33c1.17-2.4,2.77-5.25,5.55-5.46,2.77.21,4.37,3.06,5.54,5.46A15.08,15.08,0,0,1,119.76,673.18Z" transform="translate(2.7 5.03)"/><ellipse class="cls-14" cx="115.74" cy="693.71" rx="3.58" ry="3.84"/><polygon class="cls-2" points="527.18 715.95 519.54 785.49 534.83 785.49 527.18 715.95"/><polygon class="cls-2" points="517.46 711.02 509.81 785.34 525.11 785.34 517.46 711.02"/><polygon class="cls-2" points="533.83 731.18 526.18 785.38 541.48 785.38 533.83 731.18"/><polygon class="cls-2" points="508.88 721.56 501.23 791.02 516.52 791.02 508.88 721.56"/><polygon class="cls-2" points="541.48 721.14 533.83 791.44 549.13 791.44 541.48 721.14"/><polygon class="cls-2" points="502.16 695.01 494.51 785 509.81 785 502.16 695.01"/><polygon class="cls-2" points="494.51 716.16 486.87 785.28 502.16 785.28 494.51 716.16"/><polygon class="cls-2" points="486.87 698.31 483.04 784.91 490.69 784.91 486.87 698.31"/><polygon class="cls-2" points="483.04 701.67 475.39 784.83 490.69 784.83 483.04 701.67"/><polygon class="cls-2" points="550.04 724.14 542.39 793.68 557.69 793.68 550.04 724.14"/><polygon class="cls-2" points="557.69 739.37 550.04 793.57 565.34 793.57 557.69 739.37"/><polygon class="cls-2" points="554.25 724.14 546.6 794.43 561.89 794.43 554.25 724.14"/><path class="cls-17" d="M119.32,169.28c15.31-.11,28.09,6.78,30.83,15.95h0c.08-.28.15-.56.21-.85v-.06c.06-.27.11-.55.15-.83,0,0,0-.06,0-.09,0-.27.07-.55.09-.83v-.08q0-.44,0-.87c-.08-10.91-14.12-19.67-31.38-19.55s-31.19,9.06-31.11,20c0,.29,0,.58,0,.86a.28.28,0,0,1,0,.09c0,.28,0,.55.09.83,0,0,0,.06,0,.08q.06.42.15.84l0,0c.06.29.14.57.22.85h0C91.32,176.43,104,169.38,119.32,169.28Z" transform="translate(2.7 5.03)"/><path class="cls-17" d="M181,169.38c15.31-.1,28.09,6.78,30.83,16h0c.08-.29.15-.57.21-.86v0q.09-.42.15-.84s0-.05,0-.08c0-.28.07-.56.09-.83v-.09c0-.28,0-.57,0-.86-.08-10.92-14.13-19.67-31.38-19.56s-31.19,9.06-31.12,20c0,.29,0,.57,0,.86a.22.22,0,0,0,0,.08c0,.28,0,.56.09.83,0,0,0,.06,0,.09,0,.28.09.56.15.83l0,.06c.06.28.13.57.22.85h0C153,176.54,165.65,169.48,181,169.38Z" transform="translate(2.7 5.03)"/><path class="cls-17" d="M501.23,107.61c15.31-.1,28.09,6.78,30.83,16h0c.08-.28.15-.57.22-.86v0c.05-.28.1-.56.14-.83a.28.28,0,0,0,0-.09c0-.28.07-.56.09-.83v-.09c0-.28,0-.57,0-.86-.07-10.92-14.12-19.67-31.38-19.56s-31.18,9.06-31.11,20a8.25,8.25,0,0,0,0,.86v.08c0,.28.06.56.1.83,0,0,0,.06,0,.09,0,.28.1.56.16.83v.06c.06.28.14.57.22.85h0C473.23,114.77,485.92,107.72,501.23,107.61Z" transform="translate(2.7 5.03)"/><path class="cls-17" d="M562.87,107.72c15.31-.1,28.09,6.78,30.83,16h0c.08-.28.15-.56.21-.85l0-.06c.05-.27.1-.55.14-.83a.28.28,0,0,0,0-.09c0-.27.07-.55.09-.83v-.08c0-.29,0-.58,0-.86-.08-10.92-14.12-19.68-31.38-19.56s-31.19,9.06-31.11,20c0,.29,0,.58,0,.86a.28.28,0,0,1,0,.09c0,.28,0,.55.09.83,0,0,0,.06,0,.09,0,.27.09.55.15.83l0,0c.06.29.14.57.22.85h0C534.87,114.87,547.56,107.82,562.87,107.72Z" transform="translate(2.7 5.03)"/><path class="cls-17" d="M323.06,210.33c15.31-.1,28.09,6.78,30.83,15.95h0c.09-.28.15-.56.22-.85v-.06c.06-.27.1-.55.14-.83,0,0,0-.06,0-.09,0-.27.06-.55.08-.83a.22.22,0,0,1,0-.08c0-.29,0-.58,0-.86-.07-10.92-14.12-19.68-31.38-19.56s-31.18,9.06-31.11,20a8.12,8.12,0,0,0,0,.86V224c0,.28.06.55.1.83,0,0,0,.06,0,.09,0,.27.1.55.16.83v.05c.07.29.14.57.22.85h0C295.06,217.48,307.75,210.43,323.06,210.33Z" transform="translate(2.7 5.03)"/><path class="cls-17" d="M384.7,210.43c15.31-.1,28.09,6.78,30.83,16h0c.08-.28.15-.57.21-.86l0-.05c.05-.28.1-.56.14-.84a.19.19,0,0,0,0-.08c0-.28.07-.56.09-.83v-.09c0-.28,0-.57,0-.86-.07-10.92-14.12-19.67-31.38-19.56s-31.19,9.06-31.11,20c0,.29,0,.57,0,.86a.22.22,0,0,1,0,.08c0,.28.06.56.1.83a.28.28,0,0,0,0,.09,7.6,7.6,0,0,0,.16.83V226c.06.28.14.57.22.85h0C356.7,217.59,369.39,210.53,384.7,210.43Z" transform="translate(2.7 5.03)"/><polygon class="cls-2" points="406.6 725.19 399.58 795.49 413.61 795.49 406.6 725.19"/><polygon class="cls-2" points="419.76 725.32 399.94 795.36 439.58 795.36 419.76 725.32"/><polygon class="cls-2" points="413.61 725.19 406.6 795.49 420.63 795.49 413.61 725.19"/><polygon class="cls-2" points="399.87 714.81 394.61 795.49 405.13 795.49 399.87 714.81"/><polygon class="cls-2" points="391.14 711.15 380.65 795.49 401.63 795.49 391.14 711.15"/><polygon class="cls-2" points="380.3 733.93 366.62 795.49 393.98 795.49 380.3 733.93"/><polygon class="cls-2" points="373.6 725.19 366.59 795.49 380.62 795.49 373.6 725.19"/><polygon class="cls-2" points="365.33 725.95 358.32 795.49 372.35 795.49 365.33 725.95"/><polygon class="cls-2" points="358.32 721.17 351.3 795.49 365.33 795.49 358.32 721.17"/><polygon class="cls-2" points="351.3 741.29 344.29 795.49 358.32 795.49 351.3 741.29"/><polygon class="cls-2" points="345.12 726.03 338.11 795.49 352.14 795.49 345.12 726.03"/><polygon class="cls-2" points="283.43 725.19 276.41 795.49 290.44 795.49 283.43 725.19"/><polygon class="cls-2" points="296.59 725.32 276.77 795.36 316.4 795.36 296.59 725.32"/><polygon class="cls-2" points="311.77 725.19 304.76 795.49 318.79 795.49 311.77 725.19"/><polygon class="cls-2" points="290.44 725.19 283.43 795.49 297.46 795.49 290.44 725.19"/><polygon class="cls-2" points="337.24 705.5 330.23 795.49 344.26 795.49 337.24 705.5"/><polygon class="cls-2" points="330.23 726.37 323.21 795.49 337.24 795.49 330.23 726.37"/><polygon class="cls-2" points="325.8 708.88 322.3 795.49 329.31 795.49 325.8 708.88"/><polygon class="cls-2" points="318.79 712.33 311.77 795.49 325.8 795.49 318.79 712.33"/><polygon class="cls-2" points="276.7 714.81 271.44 795.49 281.96 795.49 276.7 714.81"/><polygon class="cls-2" points="267.97 711.15 257.48 795.49 278.46 795.49 267.97 711.15"/><polygon class="cls-2" points="257.13 733.93 243.45 795.49 270.8 795.49 257.13 733.93"/><polygon class="cls-2" points="250.43 725.19 243.42 795.49 257.45 795.49 250.43 725.19"/><polygon class="cls-2" points="261.04 725.95 254.02 795.49 268.05 795.49 261.04 725.95"/><polygon class="cls-2" points="254.02 721.17 247.01 795.49 261.04 795.49 254.02 721.17"/><polygon class="cls-2" points="247.01 741.29 239.99 795.49 254.02 795.49 247.01 741.29"/><polygon class="cls-2" points="240.83 726.03 233.81 795.49 247.84 795.49 240.83 726.03"/><polygon class="cls-2" points="179.13 725.19 172.12 795.49 186.15 795.49 179.13 725.19"/><polygon class="cls-2" points="186.82 725.32 173.35 795.36 200.3 795.36 186.82 725.32"/><polygon class="cls-2" points="207.48 725.19 200.46 795.49 214.5 795.49 207.48 725.19"/><polygon class="cls-2" points="196.8 725.19 189.78 795.49 203.81 795.49 196.8 725.19"/><polygon class="cls-2" points="232.95 705.5 225.94 795.49 239.97 795.49 232.95 705.5"/><polygon class="cls-2" points="225.94 726.37 218.92 795.49 232.95 795.49 225.94 726.37"/><polygon class="cls-2" points="221.51 708.88 218 795.49 225.02 795.49 221.51 708.88"/><polygon class="cls-2" points="214.5 712.33 207.48 795.49 221.51 795.49 214.5 712.33"/><polygon class="cls-2" points="172.41 714.81 167.15 795.49 177.67 795.49 172.41 714.81"/><polygon class="cls-2" points="163.68 711.15 153.19 795.49 174.17 795.49 163.68 711.15"/><polygon class="cls-2" points="152.84 733.93 139.16 795.49 166.51 795.49 152.84 733.93"/><polygon class="cls-2" points="146.14 725.19 139.13 795.49 153.16 795.49 146.14 725.19"/><polygon class="cls-2" points="203.81 725.19 196.8 795.49 210.83 795.49 203.81 725.19"/><polygon class="cls-2" points="85.8 725.32 72.32 795.36 99.28 795.36 85.8 725.32"/><polygon class="cls-2" points="145.82 725.95 138.81 795.49 152.84 795.49 145.82 725.95"/><polygon class="cls-2" points="138.81 721.17 131.79 795.49 145.82 795.49 138.81 721.17"/><polygon class="cls-2" points="131.79 741.29 124.78 795.49 138.81 795.49 131.79 741.29"/><polygon class="cls-2" points="125.61 726.03 118.6 795.49 132.63 795.49 125.61 726.03"/><polygon class="cls-2" points="63.92 725.19 56.9 795.49 70.93 795.49 63.92 725.19"/><polygon class="cls-2" points="77.08 725.32 57.26 795.36 96.89 795.36 77.08 725.32"/><polygon class="cls-2" points="92.26 724.19 85.25 794.49 99.28 794.49 92.26 724.19"/><polygon class="cls-2" points="70.93 725.19 63.92 795.49 77.95 795.49 70.93 725.19"/><polygon class="cls-2" points="117.73 705.5 110.72 795.49 124.75 795.49 117.73 705.5"/><polygon class="cls-2" points="110.72 726.37 103.7 795.49 117.73 795.49 110.72 726.37"/><polygon class="cls-2" points="106.29 708.88 102.78 795.49 109.8 795.49 106.29 708.88"/><polygon class="cls-2" points="99.28 712.33 92.26 795.49 106.29 795.49 99.28 712.33"/><polygon class="cls-2" points="57.19 714.81 51.93 795.49 62.45 795.49 57.19 714.81"/><polygon class="cls-2" points="48.46 711.15 37.97 795.49 58.95 795.49 48.46 711.15"/><polygon class="cls-2" points="37.62 733.93 23.94 795.49 51.29 795.49 37.62 733.93"/><polygon class="cls-2" points="30.92 725.19 23.91 795.49 37.94 795.49 30.92 725.19"/><polygon class="cls-2" points="14.03 725.91 0.55 795.94 27.51 795.94 14.03 725.91"/><polygon class="cls-2" points="7.01 725.57 0 795.86 14.03 795.86 7.01 725.57"/><polygon class="cls-2" points="23.94 705.5 16.93 795.49 30.96 795.49 23.94 705.5"/><polygon class="cls-2" points="304.76 721.17 291.28 791.21 318.24 791.21 304.76 721.17"/><polygon class="cls-2" points="427.93 705.5 420.91 795.49 434.94 795.49 427.93 705.5"/><polygon class="cls-2" points="463.07 718.55 455.42 788.09 470.72 788.09 463.07 718.55"/><polygon class="cls-2" points="453.35 713.62 445.7 787.94 460.99 787.94 453.35 713.62"/><polygon class="cls-2" points="469.72 733.78 462.07 787.98 477.37 787.98 469.72 733.78"/><polygon class="cls-2" points="444.76 724.16 437.12 793.62 452.41 793.62 444.76 724.16"/><polygon class="cls-2" points="477.37 723.74 469.72 794.04 485.02 794.04 477.37 723.74"/><polygon class="cls-2" points="438.05 697.61 430.4 787.6 445.7 787.6 438.05 697.61"/><polygon class="cls-2" points="430.4 718.76 422.75 787.88 438.05 787.88 430.4 718.76"/><polygon class="cls-2" points="422.75 700.91 418.93 787.51 426.58 787.51 422.75 700.91"/><polygon class="cls-2" points="418.93 704.27 411.28 787.43 426.58 787.43 418.93 704.27"/><polygon class="cls-2" points="485.93 726.74 478.28 796.28 493.58 796.28 485.93 726.74"/><polygon class="cls-2" points="493.58 741.97 485.93 796.16 501.23 796.16 493.58 741.97"/><polygon class="cls-2" points="490.13 726.74 482.48 797.03 497.78 797.03 490.13 726.74"/><polygon class="cls-2" points="576.9 717.79 569.25 787.33 584.55 787.33 576.9 717.79"/><polygon class="cls-2" points="567.17 712.87 559.52 787.18 574.82 787.18 567.17 712.87"/><polygon class="cls-2" points="583.55 733.02 575.9 787.22 591.2 787.22 583.55 733.02"/><polygon class="cls-2" points="558.59 723.41 550.94 792.86 566.24 792.86 558.59 723.41"/><polygon class="cls-2" points="591.2 722.99 583.55 793.28 598.85 793.28 591.2 722.99"/><polygon class="cls-2" points="551.88 696.85 544.23 786.84 559.52 786.84 551.88 696.85"/><polygon class="cls-2" points="544.23 718 536.58 787.12 551.88 787.12 544.23 718"/><polygon class="cls-2" points="536.58 700.15 532.75 786.75 540.4 786.75 536.58 700.15"/><polygon class="cls-2" points="532.75 703.51 525.11 786.67 540.4 786.67 532.75 703.51"/><polygon class="cls-2" points="599.76 725.98 592.11 795.52 607.41 795.52 599.76 725.98"/><polygon class="cls-2" points="607.41 741.21 599.76 795.41 615.05 795.41 607.41 741.21"/><polygon class="cls-2" points="603.96 725.98 596.31 796.28 611.61 796.28 603.96 725.98"/></svg>